<svg id="visual" viewBox="0 0 960 540" width="960" height="540" xmlns="http://www.w3.org/2000/svg" xmlns:xlink="http://www.w3.org/1999/xlink" version="1.1"><rect x="0" y="0" width="960" height="540" fill="#001220"></rect><defs><linearGradient id="grad1_0" x1="43.8%" y1="0%" x2="100%" y2="100%"><stop offset="14.444444444444446%" stop-color="#001220" stop-opacity="1"></stop><stop offset="85.55555555555554%" stop-color="#001220" stop-opacity="1"></stop></linearGradient></defs><defs><linearGradient id="grad2_0" x1="0%" y1="0%" x2="56.3%" y2="100%"><stop offset="14.444444444444446%" stop-color="#001220" stop-opacity="1"></stop><stop offset="85.55555555555554%" stop-color="#001220" stop-opacity="1"></stop></linearGradient></defs><g transform="translate(960, 0)"><path d="M0 432C-50.1 410.9 -100.1 389.8 -154.2 372.3C-208.3 354.8 -266.4 340.9 -305.5 305.5C-344.5 270 -364.6 212.9 -382.5 158.4C-400.4 103.9 -416.2 52 -432 0L0 0Z" fill="#FBAE3C"></path></g><g transform="translate(0, 540)"><path d="M0 -432C48.5 -399.5 97.1 -366.9 141.6 -341.8C186.1 -316.7 226.6 -299.1 272.9 -272.9C319.3 -246.8 371.6 -212.2 399.1 -165.3C426.6 -118.4 429.3 -59.2 432 0L0 0Z" fill="#FBAE3C"></path></g></svg>